<svg xmlns="http://www.w3.org/2000/svg" xmlns:xlink="http://www.w3.org/1999/xlink" width="500" zoomAndPan="magnify" viewBox="0 0 375 374.999991" height="500" preserveAspectRatio="xMidYMid meet" version="1.0"><defs><g/><clipPath id="9cb5b0ecfb"><rect x="0" width="95" y="0" height="109"/></clipPath></defs><rect x="-37.5" width="450" fill="#ffffff" y="-37.499999" height="449.999989" fill-opacity="1"/><rect x="-37.5" width="450" fill="#ffc2c2" y="-37.499999" height="449.999989" fill-opacity="1"/><g fill="#ffffff" fill-opacity="1"><g transform="translate(73.986252, 254.082991)"><g><path d="M 148.375 -12.859375 C 149.519531 -9.554688 151.578125 -6.832031 154.546875 -4.6875 C 157.515625 -2.550781 160.8125 -1.484375 164.4375 -1.484375 L 164.4375 0 L 88.28125 0 L 88.28125 -1.484375 C 92.40625 -1.484375 95.785156 -3.210938 98.421875 -6.671875 C 101.054688 -10.140625 101.710938 -13.929688 100.390625 -18.046875 L 93.21875 -38.828125 L 45.75 -38.828125 L 44.015625 -34.375 C 43.191406 -31.570312 42.78125 -28.851562 42.78125 -26.21875 C 42.78125 -19.289062 45.210938 -13.4375 50.078125 -8.65625 C 54.941406 -3.875 60.832031 -1.484375 67.75 -1.484375 L 67.75 0 L 7.421875 0 L 7.421875 -1.484375 C 14.671875 -2.472656 21.382812 -5.6875 27.5625 -11.125 C 33.75 -16.5625 38.160156 -22.742188 40.796875 -29.671875 L 92.734375 -173.09375 C 97.679688 -158.914062 101.96875 -146.550781 105.59375 -136 C 109.21875 -125.445312 112.472656 -116.09375 115.359375 -107.9375 C 118.242188 -99.78125 120.878906 -92.195312 123.265625 -85.1875 C 125.660156 -78.175781 128.09375 -71.164062 130.5625 -64.15625 C 133.039062 -57.15625 135.679688 -49.535156 138.484375 -41.296875 C 141.285156 -33.054688 144.582031 -23.578125 148.375 -12.859375 Z M 46.234375 -40.3125 L 92.734375 -40.3125 C 90.753906 -46.082031 88.976562 -51.234375 87.40625 -55.765625 C 85.84375 -60.296875 84.238281 -64.867188 82.59375 -69.484375 C 80.945312 -74.097656 79.132812 -79.289062 77.15625 -85.0625 C 75.175781 -90.832031 72.785156 -97.757812 69.984375 -105.84375 Z M 46.234375 -40.3125 "/></g></g></g><g fill="#ffffff" fill-opacity="1"><g transform="translate(231.755773, 254.082991)"><g/></g></g><g transform="matrix(1, 0, 0, 1, 187, 103)"><g clip-path="url(#9cb5b0ecfb)"><g fill="#ffffff" fill-opacity="1"><g transform="translate(10.705018, 36.205064)"><g><path d="M 4 -3.359375 C 3.34375 -2.773438 2.613281 -2.382812 1.8125 -2.1875 C 1.007812 -1.988281 0.226562 -2.007812 -0.53125 -2.25 C -1.300781 -2.5 -1.972656 -2.945312 -2.546875 -3.59375 C -3.128906 -4.238281 -3.492188 -4.953125 -3.640625 -5.734375 C -3.796875 -6.515625 -3.734375 -7.289062 -3.453125 -8.0625 C -3.171875 -8.84375 -2.695312 -9.53125 -2.03125 -10.125 C -1.46875 -10.632812 -0.863281 -10.988281 -0.21875 -11.1875 C 0.414062 -11.394531 1.054688 -11.457031 1.703125 -11.375 L 1.53125 -9.609375 C 0.632812 -9.722656 -0.140625 -9.488281 -0.796875 -8.90625 C -1.203125 -8.539062 -1.484375 -8.128906 -1.640625 -7.671875 C -1.804688 -7.222656 -1.832031 -6.757812 -1.71875 -6.28125 C -1.613281 -5.800781 -1.378906 -5.359375 -1.015625 -4.953125 C -0.660156 -4.546875 -0.253906 -4.265625 0.203125 -4.109375 C 0.671875 -3.953125 1.140625 -3.925781 1.609375 -4.03125 C 2.085938 -4.132812 2.53125 -4.367188 2.9375 -4.734375 C 3.59375 -5.316406 3.910156 -6.0625 3.890625 -6.96875 L 5.65625 -6.9375 C 5.675781 -6.28125 5.546875 -5.644531 5.265625 -5.03125 C 4.992188 -4.425781 4.570312 -3.867188 4 -3.359375 Z M 4 -3.359375 "/></g></g></g><g fill="#ffffff" fill-opacity="1"><g transform="translate(20.737279, 28.163046)"><g><path d="M 5.78125 -4.046875 L 1.953125 -2.6875 L 1.859375 -0.65625 L -0.109375 0.03125 L 0.625 -9.5 L 2.5 -10.171875 L 9.140625 -3.265625 L 7.140625 -2.546875 Z M 4.65625 -5.28125 L 2.21875 -7.984375 L 2.046875 -4.34375 Z M 4.65625 -5.28125 "/></g></g></g><g fill="#ffffff" fill-opacity="1"><g transform="translate(33.512336, 24.483759)"><g><path d="M 3.90625 0.265625 C 3.21875 0.242188 2.550781 0.132812 1.90625 -0.0625 C 1.269531 -0.269531 0.753906 -0.53125 0.359375 -0.84375 L 1.09375 -2.359375 C 1.457031 -2.066406 1.894531 -1.832031 2.40625 -1.65625 C 2.925781 -1.476562 3.441406 -1.378906 3.953125 -1.359375 C 4.523438 -1.347656 4.953125 -1.425781 5.234375 -1.59375 C 5.515625 -1.757812 5.660156 -1.984375 5.671875 -2.265625 C 5.679688 -2.472656 5.601562 -2.644531 5.4375 -2.78125 C 5.28125 -2.925781 5.078125 -3.046875 4.828125 -3.140625 C 4.578125 -3.234375 4.238281 -3.332031 3.8125 -3.4375 C 3.144531 -3.613281 2.597656 -3.785156 2.171875 -3.953125 C 1.753906 -4.128906 1.398438 -4.394531 1.109375 -4.75 C 0.816406 -5.101562 0.675781 -5.570312 0.6875 -6.15625 C 0.707031 -6.664062 0.859375 -7.125 1.140625 -7.53125 C 1.421875 -7.9375 1.84375 -8.253906 2.40625 -8.484375 C 2.96875 -8.710938 3.648438 -8.816406 4.453125 -8.796875 C 5.003906 -8.773438 5.546875 -8.691406 6.078125 -8.546875 C 6.609375 -8.398438 7.070312 -8.195312 7.46875 -7.9375 L 6.796875 -6.421875 C 5.992188 -6.898438 5.191406 -7.148438 4.390625 -7.171875 C 3.816406 -7.179688 3.390625 -7.097656 3.109375 -6.921875 C 2.835938 -6.742188 2.703125 -6.507812 2.703125 -6.21875 C 2.691406 -5.914062 2.835938 -5.6875 3.140625 -5.53125 C 3.453125 -5.375 3.929688 -5.21875 4.578125 -5.0625 C 5.234375 -4.882812 5.773438 -4.710938 6.203125 -4.546875 C 6.628906 -4.378906 6.988281 -4.117188 7.28125 -3.765625 C 7.570312 -3.410156 7.707031 -2.941406 7.6875 -2.359375 C 7.675781 -1.859375 7.523438 -1.40625 7.234375 -1 C 6.941406 -0.601562 6.515625 -0.285156 5.953125 -0.046875 C 5.390625 0.179688 4.707031 0.285156 3.90625 0.265625 Z M 3.90625 0.265625 "/></g></g></g><g fill="#ffffff" fill-opacity="1"><g transform="translate(45.235409, 25.472395)"><g><path d="M 5.21875 -5.578125 L 2.609375 -6.59375 L 3.21875 -8.140625 L 10.328125 -5.375 L 9.71875 -3.828125 L 7.109375 -4.84375 L 4.546875 1.765625 L 2.65625 1.03125 Z M 5.21875 -5.578125 "/></g></g></g><g fill="#ffffff" fill-opacity="1"><g transform="translate(55.753928, 30.477556)"><g/></g></g><g fill="#ffffff" fill-opacity="1"><g transform="translate(61.566043, 35.219609)"><g><path d="M 5.875 5.390625 L 4.5625 6.34375 L 0.609375 0.84375 L 7.71875 -4.265625 L 11.578125 1.109375 L 10.25 2.0625 L 7.5625 -1.6875 L 6.015625 -0.578125 L 8.390625 2.71875 L 7.125 3.625 L 4.75 0.328125 L 3.09375 1.515625 Z M 5.875 5.390625 "/></g></g></g><g fill="#ffffff" fill-opacity="1"><g transform="translate(68.081, 45.481171)"><g><path d="M 0.890625 3.8125 C 0.703125 3.144531 0.613281 2.472656 0.625 1.796875 C 0.632812 1.128906 0.734375 0.5625 0.921875 0.09375 L 2.578125 0.359375 C 2.398438 0.785156 2.300781 1.273438 2.28125 1.828125 C 2.269531 2.378906 2.332031 2.898438 2.46875 3.390625 C 2.625 3.941406 2.816406 4.328125 3.046875 4.546875 C 3.285156 4.765625 3.539062 4.835938 3.8125 4.765625 C 4.019531 4.710938 4.171875 4.585938 4.265625 4.390625 C 4.359375 4.191406 4.40625 3.957031 4.40625 3.6875 C 4.414062 3.425781 4.414062 3.078125 4.40625 2.640625 C 4.375 1.953125 4.378906 1.378906 4.421875 0.921875 C 4.460938 0.472656 4.609375 0.0546875 4.859375 -0.328125 C 5.117188 -0.710938 5.53125 -0.976562 6.09375 -1.125 C 6.582031 -1.269531 7.0625 -1.265625 7.53125 -1.109375 C 8 -0.960938 8.425781 -0.648438 8.8125 -0.171875 C 9.195312 0.296875 9.492188 0.914062 9.703125 1.6875 C 9.847656 2.21875 9.925781 2.757812 9.9375 3.3125 C 9.957031 3.875 9.898438 4.375 9.765625 4.8125 L 8.125 4.625 C 8.34375 3.71875 8.347656 2.878906 8.140625 2.109375 C 7.984375 1.554688 7.773438 1.171875 7.515625 0.953125 C 7.265625 0.742188 7 0.679688 6.71875 0.765625 C 6.425781 0.835938 6.25 1.046875 6.1875 1.390625 C 6.132812 1.734375 6.128906 2.238281 6.171875 2.90625 C 6.203125 3.582031 6.195312 4.144531 6.15625 4.59375 C 6.125 5.050781 5.976562 5.46875 5.71875 5.84375 C 5.46875 6.226562 5.0625 6.5 4.5 6.65625 C 4.019531 6.789062 3.546875 6.773438 3.078125 6.609375 C 2.609375 6.453125 2.175781 6.140625 1.78125 5.671875 C 1.394531 5.203125 1.097656 4.582031 0.890625 3.8125 Z M 0.890625 3.8125 "/></g></g></g><g fill="#ffffff" fill-opacity="1"><g transform="translate(70.56649, 56.982111)"><g><path d="M 6.875 3.375 L 7.078125 0.578125 L 8.71875 0.6875 L 8.15625 8.296875 L 6.515625 8.1875 L 6.71875 5.390625 L -0.359375 4.859375 L -0.203125 2.84375 Z M 6.875 3.375 "/></g></g></g><g fill="#ffffff" fill-opacity="1"><g transform="translate(68.858098, 68.505196)"><g/></g></g><g fill="#ffffff" fill-opacity="1"><g transform="translate(65.956542, 75.449689)"><g><path d="M -2.859375 6.640625 L -4.1875 5.65625 L -0.234375 0.328125 L 0.828125 1.109375 L 1.375 5.71875 C 1.425781 6.21875 1.515625 6.585938 1.640625 6.828125 C 1.765625 7.078125 1.921875 7.269531 2.109375 7.40625 C 2.398438 7.625 2.691406 7.691406 2.984375 7.609375 C 3.273438 7.523438 3.5625 7.300781 3.84375 6.9375 C 4.070312 6.625 4.21875 6.296875 4.28125 5.953125 C 4.34375 5.617188 4.320312 5.285156 4.21875 4.953125 L 5.84375 4.34375 C 6.039062 4.914062 6.078125 5.53125 5.953125 6.1875 C 5.828125 6.84375 5.535156 7.476562 5.078125 8.09375 C 4.691406 8.625 4.269531 9.019531 3.8125 9.28125 C 3.351562 9.550781 2.882812 9.675781 2.40625 9.65625 C 1.9375 9.644531 1.492188 9.484375 1.078125 9.171875 C 0.691406 8.890625 0.390625 8.539062 0.171875 8.125 C -0.046875 7.71875 -0.195312 7.128906 -0.28125 6.359375 L -0.609375 3.609375 Z M -2.859375 6.640625 "/></g></g></g><g fill="#ffffff" fill-opacity="1"><g transform="translate(58.865064, 84.089113)"><g><path d="M -3.625 2.21875 C -3.019531 1.820312 -2.378906 1.613281 -1.703125 1.59375 C -1.023438 1.582031 -0.367188 1.769531 0.265625 2.15625 C 0.910156 2.539062 1.492188 3.125 2.015625 3.90625 C 2.535156 4.6875 2.851562 5.453125 2.96875 6.203125 C 3.082031 6.953125 3 7.628906 2.71875 8.234375 C 2.445312 8.847656 2.007812 9.351562 1.40625 9.75 C 0.800781 10.15625 0.164062 10.363281 -0.5 10.375 C -1.175781 10.394531 -1.832031 10.207031 -2.46875 9.8125 C -3.113281 9.425781 -3.695312 8.84375 -4.21875 8.0625 C -4.738281 7.28125 -5.054688 6.515625 -5.171875 5.765625 C -5.285156 5.023438 -5.207031 4.347656 -4.9375 3.734375 C -4.664062 3.128906 -4.226562 2.625 -3.625 2.21875 Z M -2.671875 3.640625 C -3.109375 3.941406 -3.328125 4.363281 -3.328125 4.90625 C -3.328125 5.457031 -3.0625 6.132812 -2.53125 6.9375 C -2 7.738281 -1.476562 8.242188 -0.96875 8.453125 C -0.457031 8.671875 0.015625 8.628906 0.453125 8.328125 C 0.890625 8.046875 1.109375 7.628906 1.109375 7.078125 C 1.109375 6.523438 0.84375 5.847656 0.3125 5.046875 C -0.21875 4.242188 -0.738281 3.738281 -1.25 3.53125 C -1.757812 3.320312 -2.234375 3.359375 -2.671875 3.640625 Z M -2.671875 3.640625 "/></g></g></g><g fill="#ffffff" fill-opacity="1"><g transform="translate(48.263876, 90.25174)"><g><path d="M -6.4375 3.28125 L -6.828125 1.671875 L -0.390625 0.09375 L -0.078125 1.375 L -2.59375 5.28125 C -2.863281 5.695312 -3.03125 6.035156 -3.09375 6.296875 C -3.15625 6.566406 -3.160156 6.820312 -3.109375 7.0625 C -3.015625 7.40625 -2.832031 7.640625 -2.5625 7.765625 C -2.289062 7.890625 -1.929688 7.894531 -1.484375 7.78125 C -1.109375 7.695312 -0.789062 7.539062 -0.53125 7.3125 C -0.269531 7.09375 -0.0664062 6.820312 0.078125 6.5 L 1.71875 7.078125 C 1.507812 7.640625 1.144531 8.132812 0.625 8.5625 C 0.113281 9 -0.515625 9.304688 -1.265625 9.484375 C -1.898438 9.640625 -2.476562 9.671875 -3 9.578125 C -3.519531 9.492188 -3.957031 9.289062 -4.3125 8.96875 C -4.675781 8.65625 -4.921875 8.242188 -5.046875 7.734375 C -5.148438 7.273438 -5.15625 6.816406 -5.0625 6.359375 C -4.976562 5.910156 -4.71875 5.359375 -4.28125 4.703125 L -2.78125 2.390625 Z M -6.4375 3.28125 "/></g></g></g><g fill="#ffffff" fill-opacity="1"><g transform="translate(37.245837, 92.303626)"><g><path d="M -3.96875 5.140625 C -5.207031 5.023438 -6.09375 4.691406 -6.625 4.140625 C -7.15625 3.597656 -7.382812 2.914062 -7.3125 2.09375 C -7.257812 1.5625 -7.082031 1.085938 -6.78125 0.671875 C -6.476562 0.265625 -6.039062 -0.0390625 -5.46875 -0.25 C -4.90625 -0.46875 -4.226562 -0.539062 -3.4375 -0.46875 C -2.8125 -0.414062 -2.210938 -0.273438 -1.640625 -0.046875 C -1.066406 0.171875 -0.585938 0.441406 -0.203125 0.765625 L -1.140625 2.25 C -1.441406 1.96875 -1.800781 1.738281 -2.21875 1.5625 C -2.632812 1.382812 -3.070312 1.273438 -3.53125 1.234375 C -4.039062 1.191406 -4.453125 1.253906 -4.765625 1.421875 C -5.078125 1.597656 -5.25 1.863281 -5.28125 2.21875 C -5.3125 2.59375 -5.179688 2.890625 -4.890625 3.109375 C -4.609375 3.328125 -4.09375 3.46875 -3.34375 3.53125 L -1.125 3.734375 L -2.015625 8.609375 L -7.328125 8.125 L -7.171875 6.5 L -3.53125 6.828125 L -3.265625 5.203125 Z M -3.96875 5.140625 "/></g></g></g></g></g></svg>